Coordinates
version=1
nRows=19
nColumns=24
inDegrees=yes

Units are S.I. units (second, meters, Newtons, ...)
Angles are in degrees.

endheader
time	pelvis_tilt	pelvis_list	pelvis_rotation	pelvis_tx	pelvis_ty	pelvis_tz	hip_flexion_r	hip_adduction_r	hip_rotation_r	knee_angle_r	ankle_angle_r	subtalar_angle_r	mtp_angle_r	hip_flexion_l	hip_adduction_l	hip_rotation_l	knee_angle_l	ankle_angle_l	subtalar_angle_l	mtp_angle_l	lumbar_extension	lumbar_bending	lumbar_rotation
      1.17100000	      3.08454749	      6.29943639	     -3.41491714	      0.10720025	      1.02167770	      0.25227617	     14.61246979	     -7.22511276	     -1.98152193	    -60.78067144	      3.69533474	    -15.42501679	      5.10174318	      5.14720865	      9.20094675	     -1.78657465	     -8.96225046	     -0.47462377	    -11.35467926	      7.30917874	    -14.47066017	     -8.22080598	      5.33273651
      1.17516667	      3.04920149	      6.18307975	     -3.36625629	      0.11229028	      1.02234729	      0.25211620	     15.04959442	     -6.98874829	     -1.92412973	    -59.94757124	      3.79176408	    -15.34740389	      5.10263601	      4.73962827	      9.11147186	     -1.69028276	     -8.74802185	     -0.33278565	    -11.32863857	      7.29654804	    -14.48060006	     -8.08266979	      5.20759510
      1.17933333	      3.03863799	      6.07832998	     -3.29932033	      0.11738562	      1.02301724	      0.25194063	     15.43810158	     -6.77571576	     -1.89479375	    -59.05414424	      3.84902677	    -15.28354191	      5.10997280	      4.29672634	      9.03654768	     -1.55906954	     -8.51685778	     -0.18128203	    -11.29846967	      7.26784641	    -14.52422631	     -7.95444007	      4.97826595
      1.18350000	      3.00325288	      5.97249482	     -3.23828689	      0.12250061	      1.02363137	      0.25179377	     15.83642956	     -6.55383305	     -1.85292912	    -58.10089315	      3.89444083	    -15.20923263	      5.12496097	      3.88145852	      8.95357235	     -1.46233847	     -8.28617848	     -0.04896097	    -11.26211338	      7.23792267	    -14.53307781	     -7.82940927	      4.80187897
      1.18766667	      2.95983764	      5.87621212	     -3.18174681	      0.12762718	      1.02418607	      0.25166778	     16.23097964	     -6.34358831	     -1.81111642	    -57.10164211	      3.92510858	    -15.11432146	      5.13622006	      3.47589492	      8.87610943	     -1.39446793	     -8.05561480	      0.07226664	    -11.21635291	      7.22314666	    -14.52530391	     -7.71515572	      4.68584445
      1.19183333	      2.92403426	      5.77487312	     -3.09935628	      0.13276514	      1.02472115	      0.25151227	     16.58923726	     -6.13618793	     -1.79962451	    -56.04243464	      3.90281296	    -15.08596020	      5.15935154	      3.05573089	      8.79520323	     -1.27921272	     -7.81717583	      0.22255628	    -11.15298917	      7.19490725	    -14.53377599	     -7.58870844	      4.45989871
      1.19600000	      2.87110410	      5.68520990	     -3.03405749	      0.13791794	      1.02518749	      0.25139250	     16.95790713	     -5.93944705	     -1.77480111	    -54.94588901	      3.88820137	    -14.99883006	      5.17121550	      2.65630316	      8.72074343	     -1.21838831	     -7.57776839	      0.33593733	    -11.09346671	      7.18303656	    -14.51015656	     -7.47927148	      4.34514403
      1.20016667	      2.82887924	      5.60195232	     -2.95168829	      0.14306753	      1.02561438	      0.25125406	     17.29605598	     -5.75949850	     -1.77320249	    -53.80670497	      3.83779742	    -14.95951640	      5.18369093	      2.24453377	      8.65318353	     -1.13406827	     -7.33722422	      0.46909291	    -11.02373002	      7.17082439	    -14.50287451	     -7.37337157	      4.17935559
      1.20433333	      2.78691612	      5.52719874	     -2.85751305	      0.14822582	      1.02600708	      0.25111950	     17.61582645	     -5.59304064	     -1.78686577	    -52.62673294	      3.74363792	    -14.99526072	      5.20623800	      1.82753268	      8.59360451	     -1.02963696	     -7.08714034	      0.62102533	    -10.93678460	      7.14777550	    -14.50210643	     -7.27577711	      3.90937446
      1.20850000	      2.71961179	      5.45786640	     -2.77869548	      0.15340392	      1.02630721	      0.25099930	     17.95386970	     -5.43441606	     -1.79190728	    -51.41800582	      3.67327909	    -14.93582992	      5.21613094	      1.44199482	      8.53575757	     -0.97490626	     -6.84166023	      0.72898356	    -10.86652597	      7.13827273	    -14.45564045	     -7.18451297	      3.78178364
      1.21266667	      2.67053051	      5.39871163	     -2.67856904	      0.15857267	      1.02657952	      0.25087320	     18.25499463	     -5.29516437	     -1.82215678	    -50.17632020	      3.54303990	    -15.01289220	      5.23400087	      1.03334574	      8.48866931	     -0.87701059	     -6.59045152	      0.88612926	    -10.77162937	      7.11900554	    -14.44231228	     -7.10546276	      3.51163580
      1.21683333	      2.60075753	      5.33764442	     -2.58978594	      0.16376264	      1.02678685	      0.25075165	     18.56439411	     -5.15814517	     -1.85211516	    -48.90237912	      3.44051442	    -14.96870536	      5.24108393	      0.65151107	      8.43687816	     -0.82292348	     -6.34704157	      0.99357067	    -10.69449643	      7.11086833	    -14.39218265	     -7.01849400	      3.37601525
      1.22100000	      2.53445049	      5.29341455	     -2.49254548	      0.16894886	      1.02693999	      0.25063360	     18.85849248	     -5.04521617	     -1.89426821	    -47.60496945	      3.30650814	    -14.99980164	      5.24623193	      0.26434116	      8.40218861	     -0.74904570	     -6.09875100	      1.12524885	    -10.60684325	      7.10272293	    -14.35065274	     -6.95261947	      3.17952743
      1.22516667	      2.47741516	      5.25907316	     -2.39434532	      0.17413732	      1.02705265	      0.25052900	     19.13154982	     -4.94732437	     -1.94340749	    -46.28790867	      3.15218339	    -15.09679719	      5.25375156	     -0.13749940	      8.37693484	     -0.66340302	     -5.84025108	      1.28089980	    -10.50627098	      7.09023012	    -14.32225571	     -6.90440381	      2.90369262
      1.22933333	      2.39253215	      5.21426398	     -2.30157435	      0.17934536	      1.02709458	      0.25041382	     19.41711217	     -4.84348581	     -1.99826298	    -44.93716501	      3.02595693	    -15.06061990	      5.25611630	     -0.50082908	      8.33845428	     -0.61201522	     -5.59977745	      1.38745900	    -10.42215236	      7.08460035	    -14.25079278	     -6.83249125	      2.75864911
      1.23350000	      2.33299948	      5.18079206	     -2.19914760	      0.18454777	      1.02712363	      0.25030922	     19.66125015	     -4.75776770	     -2.06636698	    -43.56618211	      2.85538111	    -15.15785728	      5.25850404	     -0.89810827	      8.31103673	     -0.52757940	     -5.34626530	      1.54588959	    -10.31746919	      7.07552031	    -14.22121827	     -6.78461157	      2.49315479
      1.23766667	      2.23953795	      5.15638492	     -2.10938349	      0.18976938	      1.02704190	      0.25020993	     19.93615157	     -4.68580424	     -2.13494284	    -42.18471014	      2.73326604	    -15.10700031	      5.25959475	     -1.24959392	      8.29172655	     -0.47903604	     -5.10992165	      1.65664302	    -10.23298784	      7.07163796	    -14.13174265	     -6.73485404	      2.34624905
      1.24183333	      2.15618257	      5.13851226	     -2.01100576	      0.19498360	      1.02693520	      0.25012824	     20.18645018	     -4.62350167	     -2.21357756	    -40.78371780	      2.57239878	    -15.16604107	      5.26178898	     -1.61710907	      8.27710829	     -0.39855437	     -4.86310458	      1.81337620	    -10.12737118	      7.06584063	    -14.07615619	     -6.70392072	      2.09484225
      1.24600000	      2.07095890	      5.11791941	     -1.91684134	      0.20021453	      1.02679810	      0.25004871	     20.42137371	     -4.56477835	     -2.30340533	    -39.35734613	      2.43371419	    -15.13956623	      5.26609544	     -1.97825223	      8.25825022	     -0.33774876	     -4.62604116	      1.94568838	    -10.03071432	      7.06078503	    -14.00552662	     -6.66739298	      1.89492270
